<svg width="32" height="32" viewBox="0 0 32 32" xmlns="http://www.w3.org/2000/svg">
  <defs>
    <linearGradient id="mainGradient" x1="0%" y1="0%" x2="100%" y2="100%">
      <stop offset="0%" style="stop-color:#0f172a;stop-opacity:1" />
      <stop offset="50%" style="stop-color:#1e293b;stop-opacity:1" />
      <stop offset="100%" style="stop-color:#334155;stop-opacity:1" />
    </linearGradient>
    
    <linearGradient id="accentGradient" x1="0%" y1="0%" x2="100%" y2="100%">
      <stop offset="0%" style="stop-color:#f59e0b;stop-opacity:1" />
      <stop offset="100%" style="stop-color:#d97706;stop-opacity:1" />
    </linearGradient>
    
    <linearGradient id="highlightGradient" x1="0%" y1="0%" x2="100%" y2="100%">
      <stop offset="0%" style="stop-color:#10b981;stop-opacity:1" />
      <stop offset="100%" style="stop-color:#059669;stop-opacity:1" />
    </linearGradient>
    
    <filter id="shadow">
      <feDropShadow dx="0" dy="1" stdDeviation="1" flood-color="#000000" flood-opacity="0.3"/>
    </filter>
    
    <filter id="glow">
      <feGaussianBlur stdDeviation="0.5" result="coloredBlur"/>
      <feMerge> 
        <feMergeNode in="coloredBlur"/>
        <feMergeNode in="SourceGraphic"/>
      </feMerge>
    </filter>
  </defs>
  
  <circle cx="16" cy="16" r="15" fill="url(#mainGradient)" filter="url(#shadow)"/>
  
  <circle cx="16" cy="16" r="13" fill="none" stroke="url(#accentGradient)" stroke-width="0.5" opacity="0.6"/>
  
  <circle cx="16" cy="16" r="11" fill="#1e293b" opacity="0.8"/>
  
  <g transform="translate(16,16)" filter="url(#glow)">
   
    <path d="M-7,-6 L-1,-6 M-4,-6 L-4,6" 
          stroke="url(#accentGradient)" 
          stroke-width="2.2" 
          stroke-linecap="round" 
          fill="none"/>
    
    <path d="M1,-6 L1,6 M1,-6 L4,-2 M4,-2 L7,-6 M7,-6 L7,6" 
          stroke="url(#highlightGradient)" 
          stroke-width="2.2" 
          stroke-linecap="round" 
          stroke-linejoin="round"
          fill="none"/>
  </g>
  
  <g transform="translate(24,8) scale(0.4)" opacity="0.8">
    <path d="M-6,-4 L4,-4 M-6,-1 L2,-1 M-6,-4 L-6,4 M-2,-1 L4,4" 
          stroke="url(#accentGradient)" 
          stroke-width="2" 
          stroke-linecap="round" 
          fill="none"/>
  </g>
  
  <g opacity="0.1">
    <line x1="8" y1="12" x2="24" y2="12" stroke="#f59e0b" stroke-width="0.5"/>
    <line x1="8" y1="16" x2="24" y2="16" stroke="#f59e0b" stroke-width="0.5"/>
    <line x1="8" y1="20" x2="24" y2="20" stroke="#f59e0b" stroke-width="0.5"/>
    <line x1="12" y1="8" x2="12" y2="24" stroke="#f59e0b" stroke-width="0.5"/>
    <line x1="16" y1="8" x2="16" y2="24" stroke="#f59e0b" stroke-width="0.5"/>
    <line x1="20" y1="8" x2="20" y2="24" stroke="#f59e0b" stroke-width="0.5"/>
  </g>
  

  <circle cx="6" cy="6" r="1.5" fill="url(#highlightGradient)" opacity="0.6"/>
  <circle cx="26" cy="26" r="1.5" fill="url(#accentGradient)" opacity="0.6"/>
 
  <path d="M 6 10 Q 16 4 26 10" stroke="#ffffff" stroke-width="0.8" fill="none" opacity="0.2"/>
</svg>